<?xml version="1.0" encoding="utf-8"?>
<!-- Generator: Adobe Illustrator 16.0.4, SVG Export Plug-In . SVG Version: 6.00 Build 0)  -->
<!DOCTYPE svg PUBLIC "-//W3C//DTD SVG 1.1//EN" "http://www.w3.org/Graphics/SVG/1.1/DTD/svg11.dtd">
<svg version="1.1" id="Layer_1" xmlns="http://www.w3.org/2000/svg" xmlns:xlink="http://www.w3.org/1999/xlink" x="0px" y="0px"
	 width="64px" height="64px" viewBox="0 460.973 64 64" enable-background="new 0 460.973 64 64" xml:space="preserve">
<g>
	<g>
		<g opacity="0.3">
			<g>
				<path fill="#A3A6AA" d="M37.2,512.879c-0.081,0-0.161-0.009-0.233-0.039c-2.855-0.839-4.718-1.978-6.652-4.051
					c-2.498-2.685-3.876-6.263-3.876-10.075c0-3.136,2.471-5.684,5.515-5.684c3.044,0,5.515,2.548,5.515,5.684
					c0,2.065,1.674,3.753,3.724,3.753s3.725-1.678,3.725-3.753c0-7.274-5.819-13.189-12.973-13.189
					c-5.094,0-9.74,3.049-11.834,7.777c-0.699,1.562-1.048,3.386-1.048,5.412c0,1.505,0.125,3.88,1.191,6.956
					c0.17,0.503-0.062,1.054-0.528,1.247c-0.466,0.182-0.976-0.068-1.155-0.57c-0.877-2.538-1.307-5.027-1.307-7.633
					c0-2.315,0.412-4.418,1.227-6.244c2.39-5.383,7.672-8.866,13.447-8.866c8.137,0,14.762,6.785,14.762,15.121
					c0,3.136-2.479,5.682-5.514,5.682s-5.515-2.546-5.515-5.682c0-2.065-1.674-3.755-3.724-3.755s-3.724,1.68-3.724,3.755
					c0,3.29,1.19,6.386,3.348,8.703c1.692,1.812,3.339,2.817,5.864,3.56c0.475,0.146,0.761,0.677,0.627,1.188
					C37.952,512.599,37.594,512.879,37.2,512.879L37.2,512.879L37.2,512.879z M40.808,508.895c-2.131,0-4.002-0.581-5.551-1.709
					c-2.659-1.948-4.252-5.113-4.252-8.472c0-0.53,0.402-0.965,0.895-0.965c0.492,0,0.895,0.435,0.895,0.965
					c0,2.712,1.298,5.279,3.474,6.871c1.262,0.925,2.748,1.378,4.539,1.378c0.43,0,1.155-0.046,1.872-0.182
					c0.483-0.098,0.949,0.261,1.038,0.78c0.09,0.521-0.242,1.023-0.725,1.119C41.944,508.884,41.058,508.895,40.808,508.895
					L40.808,508.895L40.808,508.895z M27.979,512.463c-0.232,0-0.456-0.096-0.635-0.288c-1.549-1.689-2.391-2.761-3.599-5.084
					c-1.235-2.375-1.889-5.279-1.889-8.386c0-5.732,4.547-10.403,10.143-10.403c5.595,0,10.143,4.662,10.143,10.403
					c0,0.53-0.403,0.965-0.895,0.965c-0.493,0-0.896-0.435-0.896-0.965c0-4.67-3.742-8.472-8.352-8.472
					c-4.602,0-8.353,3.802-8.353,8.472c0,2.777,0.573,5.346,1.656,7.438c1.155,2.22,1.925,3.176,3.303,4.671
					c0.35,0.377,0.35,0.994-0.009,1.361C28.436,512.376,28.202,512.463,27.979,512.463L27.979,512.463L27.979,512.463z
					 M16.779,489.182c-0.179,0-0.358-0.06-0.519-0.174c-0.403-0.31-0.501-0.907-0.215-1.342c1.773-2.701,4.038-4.823,6.724-6.32
					c5.631-3.136,12.829-3.144,18.469-0.019c2.677,1.486,4.933,3.589,6.714,6.271c0.287,0.436,0.197,1.033-0.206,1.343
					c-0.403,0.308-0.967,0.212-1.253-0.223c-1.611-2.432-3.652-4.342-6.069-5.674c-5.139-2.845-11.701-2.837-16.831,0.02
					c-2.427,1.351-4.476,3.271-6.079,5.722C17.334,489.046,17.057,489.182,16.779,489.182L16.779,489.182L16.779,489.182z
					 M42.401,479.05c-0.144,0-0.278-0.038-0.412-0.106c-3.429-1.91-6.411-2.73-9.974-2.73c-3.554,0-6.902,0.916-9.973,2.721
					c-0.439,0.252-0.976,0.087-1.217-0.387c-0.233-0.473-0.081-1.051,0.357-1.312c3.34-1.959,6.983-2.951,10.833-2.951
					c3.813,0,7.144,0.907,10.796,2.942c0.439,0.241,0.609,0.829,0.386,1.302C43.036,478.857,42.723,479.05,42.401,479.05
					L42.401,479.05L42.401,479.05z"/>
			</g>
		</g>
		<g>
			<path fill="#A3A6AA" d="M21.184,477.231c-0.438,0.261-0.59,0.84-0.357,1.312c0.241,0.473,0.778,0.639,1.217,0.386
				c3.065-1.802,6.408-2.718,9.957-2.72v-1.93C28.156,474.282,24.518,475.277,21.184,477.231z"/>
			<path fill="#A3A6AA" d="M22.769,481.342c-2.686,1.497-4.951,3.619-6.724,6.32c-0.286,0.435-0.188,1.032,0.215,1.342
				c0.161,0.114,0.34,0.172,0.519,0.172c0.277,0,0.555-0.134,0.734-0.395c1.603-2.451,3.652-4.372,6.079-5.723
				c2.563-1.427,5.485-2.144,8.408-2.147v-1.927C28.791,478.987,25.584,479.773,22.769,481.342z"/>
			<path fill="#A3A6AA" d="M31.999,488.3c-5.596,0-10.143,4.669-10.143,10.401c0,3.106,0.653,6.011,1.889,8.385
				c1.208,2.324,2.05,3.395,3.599,5.084c0.179,0.193,0.403,0.289,0.635,0.289c0.224,0,0.457-0.085,0.618-0.289
				c0.358-0.366,0.358-0.983,0.009-1.36c-1.378-1.495-2.148-2.451-3.303-4.671c-1.083-2.093-1.657-4.66-1.657-7.438
				c0-4.671,3.751-8.472,8.353-8.472c0,0,0.001,0,0.001,0v-1.93C32,488.3,31.999,488.3,31.999,488.3z"/>
			<path fill="#A3A6AA" d="M31.936,483.6c-5.774,0-11.057,3.483-13.447,8.866c-0.815,1.825-1.227,3.929-1.227,6.244
				c0,2.605,0.429,5.095,1.307,7.632c0.179,0.503,0.689,0.753,1.155,0.57c0.466-0.192,0.698-0.744,0.528-1.246
				c-1.065-3.076-1.191-5.451-1.191-6.956c0-2.027,0.349-3.851,1.048-5.413c2.095-4.728,6.741-7.776,11.834-7.776
				c0.019,0,0.037,0,0.056,0V483.6C31.979,483.6,31.957,483.6,31.936,483.6z"/>
			<path fill="#A3A6AA" d="M31.005,498.71c0,1.573,0.35,3.104,0.995,4.488v-5.447c-0.033-0.004-0.066-0.006-0.1-0.006
				C31.407,497.746,31.005,498.18,31.005,498.71z"/>
			<path fill="#A3A6AA" d="M31.568,507.424c-2.157-2.317-3.348-5.413-3.348-8.706c0-2.073,1.674-3.752,3.724-3.752
				c0.019,0,0.037,0.002,0.056,0.002v-1.94c-0.016,0-0.031-0.002-0.046-0.002c-3.043,0-5.515,2.549-5.515,5.685
				c0,3.812,1.378,7.391,3.876,10.072c0.559,0.601,1.112,1.119,1.685,1.577v-2.493C31.856,507.723,31.712,507.577,31.568,507.424z"
				/>
		</g>
		<path fill="#A3A6AA" d="M32.193,515.298c0,0.089-0.045,0.163-0.103,0.163l0,0c-0.057,0-0.103-0.074-0.103-0.163v-44.65
			c0-0.089,0.046-0.163,0.103-0.163l0,0c0.057,0,0.103,0.074,0.103,0.163V515.298z"/>
	</g>
</g>
<path fill="#A3A6AA" d="M32,462.028c-17.091,0-30.946,13.855-30.946,30.945S14.909,523.918,32,523.918s30.946-13.855,30.946-30.945
	S49.091,462.028,32,462.028z M32,521.141c-15.557,0-28.168-12.61-28.168-28.168S16.443,464.805,32,464.805
	s28.168,12.61,28.168,28.168S47.558,521.141,32,521.141z"/>
</svg>
