<?xml version="1.0" encoding="utf-8"?>
<!-- Generator: Adobe Illustrator 16.0.4, SVG Export Plug-In . SVG Version: 6.00 Build 0)  -->
<!DOCTYPE svg PUBLIC "-//W3C//DTD SVG 1.1//EN" "http://www.w3.org/Graphics/SVG/1.1/DTD/svg11.dtd">
<svg version="1.1" id="Layer_1" xmlns="http://www.w3.org/2000/svg" xmlns:xlink="http://www.w3.org/1999/xlink" x="0px" y="0px"
	 width="64px" height="64px" viewBox="40.743 637.022 64 64" enable-background="new 40.743 637.022 64 64" xml:space="preserve">
<g>
	<g>
		<g opacity="0.3">
			<g>
				<path fill="#A3A6AA" d="M80.067,697.061c-0.113,0-0.228-0.012-0.327-0.054c-4.023-1.182-6.646-2.785-9.371-5.708
					c-3.519-3.777-5.46-8.82-5.46-14.188c0-4.418,3.48-8.006,7.768-8.006c4.288,0,7.769,3.588,7.769,8.006
					c0,2.908,2.358,5.284,5.246,5.284s5.246-2.362,5.246-5.284c0-10.25-8.197-18.58-18.272-18.58
					c-7.176,0-13.72,4.293-16.671,10.955c-0.984,2.2-1.477,4.77-1.477,7.625c0,2.121,0.178,5.464,1.678,9.799
					c0.24,0.706-0.088,1.481-0.744,1.753c-0.656,0.259-1.375-0.095-1.626-0.801c-1.236-3.575-1.842-7.083-1.842-10.751
					c0-3.262,0.58-6.226,1.728-8.796c3.367-7.583,10.808-12.49,18.941-12.49c11.462,0,20.794,9.557,20.794,21.298
					c0,4.418-3.492,8.007-7.768,8.007c-4.274,0-7.769-3.589-7.769-8.007c0-2.906-2.357-5.285-5.245-5.285
					c-2.889,0-5.247,2.364-5.247,5.285c0,4.637,1.679,8.999,4.718,12.261c2.383,2.555,4.704,3.968,8.259,5.016
					c0.669,0.204,1.072,0.95,0.884,1.67C81.126,696.668,80.622,697.061,80.067,697.061L80.067,697.061L80.067,697.061z
					 M85.149,691.447c-3.002,0-5.637-0.814-7.818-2.404c-3.746-2.746-5.99-7.203-5.99-11.933c0-0.749,0.567-1.359,1.261-1.359
					c0.694,0,1.262,0.61,1.262,1.359c0,3.816,1.828,7.434,4.893,9.678c1.778,1.303,3.871,1.942,6.394,1.942
					c0.605,0,1.626-0.068,2.636-0.259c0.681-0.136,1.336,0.368,1.462,1.102c0.127,0.734-0.339,1.439-1.021,1.578
					C86.751,691.436,85.502,691.447,85.149,691.447L85.149,691.447L85.149,691.447z M67.078,696.478
					c-0.327,0-0.644-0.137-0.896-0.409c-2.182-2.376-3.366-3.886-5.068-7.162c-1.741-3.343-2.661-7.434-2.661-11.811
					c0-8.072,6.405-14.651,14.288-14.651c7.881,0,14.286,6.565,14.286,14.651c0,0.749-0.567,1.359-1.261,1.359
					s-1.261-0.61-1.261-1.359c0-6.578-5.271-11.933-11.765-11.933c-6.482,0-11.767,5.354-11.767,11.933
					c0,3.914,0.807,7.529,2.333,10.478c1.626,3.127,2.711,4.475,4.653,6.581c0.491,0.529,0.491,1.398-0.013,1.914
					C67.721,696.356,67.394,696.478,67.078,696.478L67.078,696.478L67.078,696.478z M51.304,663.68
					c-0.253,0-0.506-0.081-0.732-0.243c-0.567-0.435-0.706-1.278-0.303-1.889c2.497-3.806,5.688-6.798,9.471-8.902
					c7.933-4.418,18.071-4.432,26.016-0.028c3.771,2.093,6.948,5.056,9.458,8.835c0.402,0.611,0.277,1.455-0.291,1.89
					c-0.566,0.434-1.361,0.299-1.765-0.312c-2.271-3.426-5.146-6.116-8.55-7.993c-7.238-4.01-16.482-3.993-23.708,0.027
					c-3.417,1.902-6.305,4.607-8.562,8.059C52.085,663.492,51.693,663.68,51.304,663.68L51.304,663.68L51.304,663.68z
					 M87.394,649.409c-0.201,0-0.391-0.054-0.579-0.148c-4.831-2.69-9.03-3.847-14.049-3.847c-5.007,0-9.723,1.291-14.048,3.833
					c-0.617,0.354-1.375,0.123-1.715-0.544c-0.328-0.667-0.114-1.481,0.504-1.849c4.704-2.758,9.836-4.159,15.259-4.159
					c5.372,0,10.063,1.278,15.208,4.146c0.618,0.342,0.858,1.168,0.543,1.835C88.289,649.138,87.848,649.409,87.394,649.409
					L87.394,649.409L87.394,649.409z"/>
			</g>
		</g>
		<g>
			<path fill="#A3A6AA" d="M57.507,646.849c-0.618,0.367-0.832,1.182-0.504,1.848c0.34,0.667,1.098,0.898,1.715,0.543
				c4.318-2.536,9.026-3.827,14.024-3.83v-2.718C67.329,642.693,62.204,644.095,57.507,646.849z"/>
			<path fill="#A3A6AA" d="M59.739,652.639c-3.783,2.106-6.974,5.097-9.471,8.901c-0.403,0.612-0.265,1.455,0.303,1.889
				c0.227,0.166,0.479,0.247,0.731,0.247c0.391,0,0.782-0.19,1.034-0.558c2.257-3.452,5.145-6.156,8.562-8.061
				c3.612-2.013,7.727-3.021,11.844-3.025v-2.714C68.223,649.32,63.705,650.429,59.739,652.639z"/>
			<path fill="#A3A6AA" d="M72.741,662.437c-7.883,0-14.288,6.579-14.288,14.652c0,4.377,0.921,8.468,2.661,11.811
				c1.701,3.278,2.887,4.786,5.068,7.165c0.252,0.271,0.568,0.409,0.896,0.409c0.315,0,0.643-0.124,0.87-0.409
				c0.504-0.518,0.504-1.387,0.013-1.917c-1.942-2.107-3.027-3.452-4.653-6.578c-1.526-2.951-2.333-6.565-2.333-10.48
				c0-6.576,5.284-11.934,11.767-11.934c0,0,0,0.002,0.001,0.002L72.741,662.437C72.741,662.437,72.741,662.437,72.741,662.437z"/>
			<path fill="#A3A6AA" d="M72.652,655.818c-8.134,0-15.574,4.907-18.941,12.492c-1.147,2.566-1.728,5.531-1.728,8.792
				c0,3.671,0.605,7.177,1.842,10.751c0.251,0.709,0.97,1.062,1.626,0.803c0.656-0.272,0.984-1.046,0.744-1.755
				c-1.5-4.335-1.678-7.68-1.678-9.799c0-2.854,0.492-5.422,1.477-7.624c2.951-6.66,9.495-10.956,16.671-10.956
				c0.026,0,0.051,0.003,0.077,0.003v-2.704C72.713,655.821,72.682,655.818,72.652,655.818z"/>
			<path fill="#A3A6AA" d="M71.341,677.103c0,2.217,0.493,4.372,1.401,6.324v-7.674c-0.046-0.004-0.093-0.009-0.141-0.009
				C71.908,675.744,71.341,676.355,71.341,677.103z"/>
			<path fill="#A3A6AA" d="M72.136,689.375c-3.039-3.261-4.718-7.624-4.718-12.258c0-2.923,2.358-5.288,5.247-5.288
				c0.026,0,0.051,0.002,0.077,0.002v-2.73c-0.021,0-0.043-0.004-0.065-0.004c-4.287,0-7.768,3.59-7.768,8.006
				c0,5.369,1.941,10.41,5.46,14.19c0.787,0.846,1.566,1.575,2.373,2.223v-3.515C72.54,689.802,72.338,689.595,72.136,689.375z"/>
		</g>
		<path fill="#A3A6AA" d="M73.016,700.469c0,0.128-0.065,0.23-0.146,0.23l0,0c-0.079,0-0.145-0.103-0.145-0.23v-62.894
			c0-0.127,0.065-0.229,0.145-0.229l0,0c0.08,0,0.146,0.103,0.146,0.229V700.469z"/>
	</g>
</g>
</svg>
