<?xml version="1.0" encoding="utf-8"?>
<!-- Generator: Adobe Illustrator 22.0.0, SVG Export Plug-In . SVG Version: 6.00 Build 0)  -->
<svg version="1.2" baseProfile="tiny" xmlns="http://www.w3.org/2000/svg" xmlns:xlink="http://www.w3.org/1999/xlink" x="0px"
	 y="0px" viewBox="0 0 90 90" xml:space="preserve">
<g id="BACKGROUND">
</g>
<g id="OBJECTS">
	<g>
		<linearGradient id="SVGID_1_" gradientUnits="userSpaceOnUse" x1="0" y1="45" x2="90" y2="45">
			<stop  offset="0" style="stop-color:#FFFFFF"/>
			<stop  offset="1" style="stop-color:#FFFFFF"/>
		</linearGradient>
		<circle fill="url(#SVGID_1_)" cx="45" cy="45" r="45"/>
		<linearGradient id="SVGID_2_" gradientUnits="userSpaceOnUse" x1="13.215" y1="47.1883" x2="73.5142" y2="47.1883">
			<stop  offset="0" style="stop-color:#002352"/>
			<stop  offset="1" style="stop-color:#0066CC"/>
		</linearGradient>
		<path fill="url(#SVGID_2_)" d="M32.2,27.3h-2.3c-1.1,0-2-0.9-2-2l0,0c0-1.1,0.9-2,2-2h2.3c1.1,0,2,0.9,2,2l0,0
			C34.2,26.4,33.3,27.3,32.2,27.3z M24.9,53.6L24.9,53.6c0-1.1-0.9-2-2-2h-2.3c-1.1,0-2,0.9-2,2l0,0c0,1.1,0.9,2,2,2h2.3
			C24,55.5,24.9,54.6,24.9,53.6z M24.9,34.7L24.9,34.7c0-1.1-0.9-2-2-2h-2.3c-1.1,0-2,0.9-2,2l0,0c0,1.1,0.9,2,2,2h2.3
			C24,36.7,24.9,35.8,24.9,34.7z M24.9,44.1L24.9,44.1c0-1.1-0.9-2-2-2h-7.7c-1.1,0-2,0.9-2,2v0c0,1.1,0.9,2,2,2h7.7
			C24,46.1,24.9,45.2,24.9,44.1z M73.5,44.2c0,8.7-5.6,14.9-12,20.1c-1.6,1.2-5.8,4.3-8.6,6.4c-1.2,0.9-2.9,0-2.9-1.5v-1
			c0-1.8-1.5-3.3-3.3-3.3H35.6c-1.2,0-2.1-1-2-2.2c0.1-1,1-1.8,2-1.8h4.4h0.2c0,0,0,0,0,0c1.5-0.1,2.6-1.4,2.5-2.9
			c-0.1-1.5-1.4-2.6-2.8-2.6h-4.8h-6.5c-1.2,0-2.1-1-2-2.2c0.1-1,1-1.8,2-1.8h4.4h0.1c1.5,0,2.7-1.2,2.7-2.7l0,0
			c0-1.5-1.2-2.7-2.7-2.7h-1.3h-3.6c-1.1,0-2-0.9-2-2v0c0-1.1,0.9-2,2-2h3.6h1.3c1.8,0,3.2-1.7,2.6-3.6c-0.4-1.1-1.4-1.8-2.6-1.8h0
			h-4.5c-1.2,0-2.1-1-2-2.2c0.1-1,1-1.8,2-1.8h6.5h5c1.5,0,2.8-1.1,2.8-2.6c0.1-1.5-1.1-2.8-2.6-2.9c0,0,0,0,0,0h-0.1h-2.7
			c-1.1,0-2.1-1-2-2.2c0.1-1,1-1.8,2-1.8h14.9v0C64.2,23.4,73.5,32.7,73.5,44.2z M61,44.2c0-4.4-3.3-7.6-7.9-7.6h-4.4
			c-1,0-1.8,0.8-1.8,1.8V50c0,1,0.8,1.8,1.8,1.8h4.4C57.7,51.8,61,48.6,61,44.2z"/>
	</g>
</g>
<g id="Layer_4">
</g>
<g id="DESIGNED_BY_FREEPIK">
</g>
</svg>
